<svg width="94" height="94" viewBox="0 0 94 94" fill="none" xmlns="http://www.w3.org/2000/svg">
<path fill-rule="evenodd" clip-rule="evenodd" d="M43.8284 0C43.8388 0.569974 33.4734 50.438 32.929 50.4485C33.4624 50.4829 36.9404 50.4113 36.3891 50.4485C33.8258 62.9802 33.8194 69.3315 41.0026 70.9831C53.1869 71.4238 55.4786 61.2619 55.9388 50.4485C55.91 50.4552 50.1702 50.4713 50.172 50.4485C50.1973 50.4713 61.6428 0.548884 61.7057 0C61.7582 0.578854 93.9892 0.461751 94.0002 0C93.9835 0.566644 81.8967 50.4002 81.8897 50.4485C81.8972 50.4485 87.6491 50.4485 87.1376 50.4485C84.8216 74.4784 72.2049 98.7997 26.5855 93.1827C11.7502 91.2702 -2.46862 81.2421 5.02716 50.3836C5.20824 50.3991 -0.0102032 50.4413 0.000177178 50.4485C-0.0534547 50.5112 12.087 0.511145 11.5916 0C12.0322 0.425122 43.844 0.584959 43.8284 0Z" fill="#61E786"/>
</svg>
